<?xml version="1.0" encoding="utf-8"?>
<!-- Uploaded to: SVG Repo, www.svgrepo.com, Generator: SVG Repo Mixer Tools -->
<svg fill="#000000" height="800px" width="800px" version="1.2" baseProfile="tiny" id="Layer_1" xmlns="http://www.w3.org/2000/svg" xmlns:xlink="http://www.w3.org/1999/xlink"
	  viewBox="0 0 203.4 242" xml:space="preserve">
<path d="M39.6,90h78V33.1h-78V90z M111.1,39v42.3L99.7,63.7l-17.8,9.5L66.6,42L46,82.4V39H111.1z M92.3,49.1c0-3.9,3.2-7.1,7.1-7.1
	s7.1,3.2,7.1,7.1c0,3.9-3.2,7.1-7.1,7.1C95.5,56.2,92.3,53,92.3,49.1z M202.8,141.7l-19.1-48.3c0,0-2-20-3.8-27.7
	C171.9,31.3,133.5,0,91.8,0C41.1,0,0,41.1,0,91.9c0,29.3,13.7,55.4,35.1,72.2V242h98v-28.1h14.4c20,0,36.2-16.2,36.2-36.2V152H196
	c4.1,0,7.4-3.3,7.4-7.4C203.4,143.5,203.2,142.6,202.8,141.7z M78,101.3c-49.9,0-46.2,42.3-46.2,42.3C19.3,129.5,11.6,111,11.6,90.7
	c0-43.9,35.6-79.4,79.4-79.4c22.9,0,43.4,9.7,57.9,25.1C148.9,36.4,149.8,99.7,78,101.3z M161.1,111.7c-5.7,0-10.3-4.6-10.3-10.3
	c0-5.6,4.6-10.2,10.3-10.2c5.6,0,10.2,4.6,10.2,10.2C171.3,107.1,166.7,111.7,161.1,111.7z"/>
</svg>